# xmcd
# 
# Track frame offsets:
#     183
#     15355
#     36870
#     48045
#     68853
#     84685
#     105773
#     120943
#     134313
#     158380
#     172930
#     193415
#     213513
#     233100
#     251145
#     268975
# 
# Disc length: 3645
# 
# Revision: 3
# Processed by: cddbd v1.5.2PL0 Copyright (c) Steve Scherf et al.
# Submitted via: fre:ac v1.0.17
# 
DISCID=cd0e3b10
DTITLE=Steve Baker and Chris Jones - Slow Roll
DYEAR=1995
DGENRE=Blues
TTITLE0=Do It Yourself
TTITLE1=Jesus Just Left Chicago
TTITLE2=Tamp 'em Up Solid
TTITLE3=Waitin' On The ADAC
TTITLE4=Fast Food Restaurant Blues
TTITLE5=St. James Infirmary
TTITLE6=Same Old Blues
TTITLE7=Wall Street
TTITLE8=Can't Make You Love Me
TTITLE9=Bourgeois Blues
TTITLE10=True Love
TTITLE11=Slow Roll
TTITLE12=Mean Old Frisco
TTITLE13=County Jail
TTITLE14=Blue Harp Swing
TTITLE15=Tamp 'em Up Solid (Reprise)
EXTD=YEAR: 1995 ID3G:   0
EXTT0=
EXTT1=
EXTT2=
EXTT3=
EXTT4=
EXTT5=
EXTT6=
EXTT7=
EXTT8=
EXTT9=
EXTT10=
EXTT11=
EXTT12=
EXTT13=
EXTT14=
EXTT15=
PLAYORDER=
